<svg width="35" height="35" viewBox="0 0 35 35" fill="none" xmlns="http://www.w3.org/2000/svg">
<path fill-rule="evenodd" clip-rule="evenodd" d="M27.2255 29.5312C28.3428 29.5312 29.1971 28.5354 29.0273 27.4311L27.008 14.3061C26.8712 13.4169 26.106 12.7604 25.2063 12.7604H9.79417C8.89443 12.7604 8.12926 13.4169 7.99245 14.3061L5.97322 27.4311C5.80333 28.5354 6.6577 29.5312 7.77494 29.5312H10.9377C11.5418 29.5312 12.0315 30.0209 12.0315 30.625C12.0315 31.2291 11.5418 31.7188 10.9377 31.7188H7.77494C5.31701 31.7188 3.43741 29.5279 3.81116 27.0985L5.83039 13.9735C6.13137 12.0171 7.81474 10.5729 9.79417 10.5729H25.2063C27.1857 10.5729 28.8691 12.0171 29.1701 13.9735L31.1893 27.0985C31.5631 29.5279 29.6835 31.7188 27.2255 31.7188H24.0627C23.4587 31.7188 22.969 31.2291 22.969 30.625C22.969 30.0209 23.4587 29.5312 24.0627 29.5312H27.2255Z" fill="#3D3A34"/>
<path fill-rule="evenodd" clip-rule="evenodd" d="M16.7266 16.7266C17.1537 16.2995 17.8463 16.2995 18.2734 16.7266L22.6484 21.1016C23.0755 21.5287 23.0755 22.2213 22.6484 22.6484C22.2213 23.0755 21.5287 23.0755 21.1016 22.6484L18.5938 20.1405V27.7083C18.5938 28.3124 18.1041 28.8021 17.5 28.8021C16.8959 28.8021 16.4062 28.3124 16.4062 27.7083V20.1405L13.8984 22.6484C13.4713 23.0755 12.7787 23.0755 12.3516 22.6484C11.9245 22.2213 11.9245 21.5287 12.3516 21.1016L16.7266 16.7266Z" fill="#3D3A34"/>
<path fill-rule="evenodd" clip-rule="evenodd" d="M17.5002 5.46875C16.4934 5.46875 15.6772 6.2849 15.6772 7.29167C15.6772 7.89573 15.1876 8.38542 14.5835 8.38542C13.9794 8.38542 13.4897 7.89573 13.4897 7.29167C13.4897 5.07677 15.2853 3.28125 17.5002 3.28125C19.7151 3.28125 21.5106 5.07677 21.5106 7.29167C21.5106 7.89573 21.0209 8.38542 20.4168 8.38542C19.8128 8.38542 19.3231 7.89573 19.3231 7.29167C19.3231 6.2849 18.5069 5.46875 17.5002 5.46875Z" fill="#3D3A34"/>
</svg>
