<svg width="37" height="35" viewBox="0 0 37 35" fill="none" xmlns="http://www.w3.org/2000/svg">
<path fill-rule="evenodd" clip-rule="evenodd" d="M31.5112 8.97733C31.6524 9.55226 31.2805 10.128 30.6805 10.2633C24.4037 11.6786 19.8102 13.4089 16.5916 16.3267C13.4076 19.2131 11.4307 23.393 10.7039 30.0101C10.6393 30.5975 10.0902 31.0236 9.47724 30.9617C8.86431 30.8999 8.41973 30.3736 8.48425 29.7862C9.24534 22.8571 11.3602 18.1249 15.0578 14.7729C18.7208 11.4523 23.7988 9.61775 30.1693 8.18126C30.7693 8.04598 31.3701 8.40239 31.5112 8.97733Z" fill="#3D3A34"/>
<path fill-rule="evenodd" clip-rule="evenodd" d="M32.0231 9.53344C32.2835 8.99814 32.0419 8.36184 31.4833 8.11223L24.8085 5.1294C24.2499 4.87979 23.586 5.11138 23.3255 5.64668C23.065 6.18198 23.3067 6.81828 23.8653 7.06789L29.5287 9.59875L26.8878 15.0262C26.6273 15.5615 26.869 16.1978 27.4276 16.4474C27.9861 16.697 28.6501 16.4654 28.9106 15.9301L32.0231 9.53344Z" fill="#3D3A34"/>
<path fill-rule="evenodd" clip-rule="evenodd" d="M8.10618 6.01389C7.07899 6.01389 6.24628 6.8119 6.24628 7.79629C6.24628 8.78068 7.07899 9.57869 8.10618 9.57869C9.13338 9.57869 9.96609 8.78068 9.96609 7.79629C9.96609 6.8119 9.13338 6.01389 8.10618 6.01389ZM4.0144 7.79629C4.0144 5.63062 5.84636 3.875 8.10618 3.875C10.366 3.875 12.198 5.63062 12.198 7.79629C12.198 9.96196 10.366 11.7176 8.10618 11.7176C5.84636 11.7176 4.0144 9.96196 4.0144 7.79629Z" fill="#3D3A34"/>
<path fill-rule="evenodd" clip-rule="evenodd" d="M23.684 22.7252C24.1198 22.3076 24.8264 22.3076 25.2622 22.7252L27.6295 24.9939L29.9967 22.7252C30.4325 22.3076 31.1391 22.3076 31.5749 22.7252C32.0107 23.1429 32.0107 23.82 31.5749 24.2376L29.2077 26.5063L31.5749 28.7749C32.0107 29.1925 32.0107 29.8697 31.5749 30.2873C31.1391 30.705 30.4325 30.705 29.9967 30.2873L27.6295 28.0187L25.2622 30.2873C24.8264 30.705 24.1198 30.705 23.684 30.2873C23.2482 29.8697 23.2482 29.1925 23.684 28.7749L26.0513 26.5063L23.684 24.2376C23.2482 23.82 23.2482 23.1429 23.684 22.7252Z" fill="#3D3A34"/>
</svg>
