<svg width="35" height="35" viewBox="0 0 35 35" fill="none" xmlns="http://www.w3.org/2000/svg">
<path fill-rule="evenodd" clip-rule="evenodd" d="M16.7622 17.406C17.2168 17.8038 17.2628 18.4948 16.8651 18.9494C14.4287 21.7337 13.0319 24.6984 12.2448 26.9723C11.8518 28.1077 11.6128 29.0651 11.4727 29.7329C11.4028 30.0666 11.3577 30.3273 11.3305 30.5009C11.3169 30.5878 11.3077 30.6527 11.3022 30.6941L11.2966 30.7383L11.2957 30.7458L11.2956 30.7464C11.2286 31.3464 10.688 31.7787 10.0878 31.712C9.48744 31.6453 9.05483 31.1046 9.12153 30.5042L10.2086 30.625C9.12153 30.5042 9.12158 30.5038 9.12162 30.5034L9.12173 30.5025L9.12199 30.5001L9.12273 30.4937L9.12513 30.4736C9.12714 30.4571 9.13001 30.4343 9.13384 30.4056C9.1415 30.348 9.15303 30.2663 9.16933 30.1623C9.20193 29.9542 9.25366 29.6567 9.33181 29.284C9.48801 28.539 9.75031 27.4912 10.1776 26.2568C11.0311 23.7911 12.5509 20.5579 15.2188 17.5089C15.6166 17.0543 16.3076 17.0082 16.7622 17.406Z" fill="#3D3A34"/>
<path fill-rule="evenodd" clip-rule="evenodd" d="M17.4647 7.41088C12.5055 7.8884 8.87234 12.2958 9.34986 17.255C9.8261 22.2009 14.3168 25.8395 19.2895 25.3607C24.3686 24.8716 28.1624 20.3482 27.6759 15.2958L26.8298 6.50912L17.4647 7.41088ZM7.17243 17.4647C6.57912 11.3029 11.0933 5.82676 17.2551 5.23345L26.8379 4.31073C27.9202 4.20651 28.8821 4.99942 28.9863 6.08172L29.8533 15.0861C30.4582 21.3677 25.754 26.9358 19.4991 27.5381C13.3507 28.1301 7.76703 23.6398 7.17243 17.4647Z" fill="#3D3A34"/>
</svg>
