<svg width="35" height="35" viewBox="0 0 35 35" fill="none" xmlns="http://www.w3.org/2000/svg">
<path fill-rule="evenodd" clip-rule="evenodd" d="M17.4998 4.01038C10.0497 4.01038 4.01025 10.0499 4.01025 17.5C4.01025 24.9501 10.0497 30.9895 17.4998 30.9895C24.9499 30.9895 30.9894 24.9501 30.9894 17.5C30.9894 10.0499 24.9499 4.01038 17.4998 4.01038ZM1.82275 17.5C1.82275 8.84174 8.84162 1.82288 17.4998 1.82288C26.1581 1.82288 33.1769 8.84174 33.1769 17.5C33.1769 26.1582 26.1581 33.177 17.4998 33.177C8.84162 33.177 1.82275 26.1582 1.82275 17.5Z" fill="#3D3A34"/>
<path fill-rule="evenodd" clip-rule="evenodd" d="M2.61839 17.8553C2.82483 17.2876 3.45238 16.9947 4.02008 17.2012L12.0409 20.1178C12.5805 20.314 12.8765 20.8941 12.7188 21.4462L11.3534 26.225L12.7048 30.279C12.8958 30.8521 12.5861 31.4715 12.013 31.6625C11.4399 31.8535 10.8205 31.5438 10.6295 30.9708L9.17117 26.5958C9.10147 26.3867 9.09657 26.1614 9.15713 25.9494L10.3354 21.8253L3.27251 19.257C2.70482 19.0505 2.41196 18.423 2.61839 17.8553Z" fill="#3D3A34"/>
<path fill-rule="evenodd" clip-rule="evenodd" d="M24.4456 17.1915C24.5958 17.1415 24.755 17.1246 24.9123 17.1421L31.4748 17.8712C32.0752 17.9379 32.5078 18.4787 32.4411 19.0791C32.3744 19.6794 31.8336 20.1121 31.2332 20.0454L24.9095 19.3427L21.5103 20.4758V24.0511L24.4685 25.2344C24.8117 25.3717 25.0624 25.673 25.1348 26.0355L25.864 29.6813C25.9825 30.2736 25.5983 30.8498 25.006 30.9683C24.4137 31.0868 23.8375 30.7026 23.719 30.1103L23.106 27.0454L20.0103 25.8071C19.595 25.641 19.3228 25.2389 19.3228 24.7916V19.6875C19.3228 19.2167 19.624 18.7987 20.0706 18.6498L24.4456 17.1915Z" fill="#3D3A34"/>
<path fill-rule="evenodd" clip-rule="evenodd" d="M28.0542 6.98318C28.6273 7.1742 28.937 7.79362 28.746 8.36668L28.0168 10.5542C27.8858 10.9472 27.544 11.2325 27.1338 11.2911L22.9688 11.8861V13.697L25.1146 12.8386C25.2438 12.7869 25.3817 12.7604 25.5208 12.7604H28.4375C28.6073 12.7604 28.7748 12.7999 28.9266 12.8759L31.8433 14.3342C32.3836 14.6043 32.6026 15.2613 32.3324 15.8016C32.0623 16.3419 31.4053 16.5609 30.865 16.2908L28.1793 14.9479H25.7315L22.2812 16.328C21.9442 16.4628 21.5623 16.4216 21.2618 16.2182C20.9613 16.0147 20.7812 15.6754 20.7812 15.3125V10.9375C20.7812 10.3932 21.1815 9.93169 21.7203 9.85471L26.1553 9.22114L26.6707 7.67493C26.8617 7.10187 27.4811 6.79216 28.0542 6.98318Z" fill="#3D3A34"/>
<path fill-rule="evenodd" clip-rule="evenodd" d="M11.9069 3.39684C12.4472 3.12669 13.1042 3.34569 13.3743 3.88598L14.8326 6.80264C15.0082 7.15371 14.9821 7.57191 14.7644 7.89849L11.8478 12.2735C11.6869 12.5148 11.4367 12.6824 11.1522 12.7393L7.76732 13.4163L4.3293 16.1667C3.8576 16.544 3.16932 16.4676 2.79196 15.9959C2.41461 15.5242 2.49108 14.8359 2.96278 14.4585L6.60861 11.5419C6.74515 11.4326 6.9059 11.3577 7.07737 11.3234L10.279 10.6831L12.5922 7.21321L11.4178 4.86426C11.1476 4.32397 11.3666 3.66698 11.9069 3.39684Z" fill="#3D3A34"/>
</svg>
