<svg width="24" height="24" viewBox="0 0 24 24" fill="none" xmlns="http://www.w3.org/2000/svg">
<path fill-rule="evenodd" clip-rule="evenodd" d="M4.53322 3.75L17.3666 20.25H19.4663L6.63293 3.75H4.53322ZM3.1609 4.42882C2.4712 3.54206 3.10312 2.25 4.22652 2.25H6.70629C7.12289 2.25 7.51615 2.44234 7.77191 2.77118L20.8386 19.5712C21.5283 20.4579 20.8964 21.75 19.773 21.75H17.2932C16.8766 21.75 16.4833 21.5577 16.2276 21.2288L3.1609 4.42882Z" fill="#3D3A34"/>
<path fill-rule="evenodd" clip-rule="evenodd" d="M20.4983 2.43945C20.1887 2.16426 19.7146 2.19215 19.4394 2.50174L3.43944 20.5017C3.16425 20.8113 3.19213 21.2854 3.50172 21.5606C3.81131 21.8358 4.28536 21.8079 4.56055 21.4983L20.5605 3.49828C20.8357 3.18869 20.8079 2.71464 20.4983 2.43945Z" fill="#3D3A34"/>
</svg>
