<svg width="20" height="20" viewBox="0 0 20 20" fill="none" xmlns="http://www.w3.org/2000/svg">
<path d="M11.6667 10L8.75 11.6667V8.33335L11.6667 10Z" fill="#DAFAA1"/>
<path fill-rule="evenodd" clip-rule="evenodd" d="M8.4363 12.2073C8.62899 12.3191 8.86665 12.3199 9.06009 12.2093L11.9768 10.5427C12.1715 10.4314 12.2917 10.2243 12.2917 10C12.2917 9.77574 12.1715 9.56865 11.9768 9.45737L9.06009 7.7907C8.86665 7.68017 8.62899 7.68096 8.4363 7.79279C8.2436 7.90461 8.125 8.11056 8.125 8.33335V11.6667C8.125 11.8895 8.2436 12.0954 8.4363 12.2073ZM9.375 10.5897V9.41034L10.4069 10L9.375 10.5897Z" fill="#DAFAA1"/>
<path fill-rule="evenodd" clip-rule="evenodd" d="M6.7224 3.51328C7.85096 3.48136 9.00761 3.45837 10.0003 3.45837C10.993 3.45837 12.1497 3.48136 13.2782 3.51328L13.3241 3.51458C14.4731 3.54706 15.3994 3.57324 16.1298 3.69404C16.8903 3.81981 17.5221 4.0598 18.0272 4.57941C18.5337 5.1004 18.7549 5.74475 18.8587 6.5156C18.9587 7.25758 18.9587 8.19718 18.9587 9.36483V10.6353C18.9587 11.803 18.9587 12.7426 18.8587 13.4845C18.7549 14.2554 18.5337 14.8997 18.0272 15.4207C17.5221 15.9403 16.8904 16.1803 16.1299 16.3061C15.3994 16.4269 14.4732 16.4531 13.3242 16.4856L13.2783 16.4869C12.1498 16.5188 10.9931 16.5418 10.0003 16.5418C9.00758 16.5418 7.85089 16.5188 6.72231 16.4869L6.67649 16.4856C5.52749 16.4531 4.60121 16.4269 3.8708 16.3061C3.11029 16.1803 2.47852 15.9403 1.97342 15.4207C1.46696 14.8997 1.24575 14.2554 1.14191 13.4845C1.04196 12.7425 1.04198 11.803 1.04199 10.6353V9.36485C1.04198 8.19719 1.04196 7.25759 1.14191 6.51561C1.24575 5.74475 1.46696 5.1004 1.97343 4.57941C2.47854 4.0598 3.11031 3.81981 3.87084 3.69404C4.60125 3.57324 5.52754 3.54706 6.67654 3.51458L6.7224 3.51328ZM10.0003 4.70837C9.02441 4.70837 7.88092 4.73101 6.75774 4.76278C5.55204 4.79688 4.71129 4.82202 4.07478 4.92729C3.45869 5.02917 3.11918 5.19409 2.86972 5.4507C2.6216 5.70594 2.46553 6.05289 2.38072 6.68248C2.29332 7.33131 2.29199 8.18649 2.29199 9.41044V10.5897C2.29199 11.8137 2.29332 12.6688 2.38072 13.3176C2.46553 13.9472 2.6216 14.2942 2.86971 14.5494C3.11917 14.806 3.45867 14.9709 4.07476 15.0728C4.71125 15.1781 5.55199 15.2032 6.75767 15.2374C7.88087 15.2691 9.02439 15.2918 10.0003 15.2918C10.9763 15.2918 12.1198 15.2691 13.243 15.2374C14.4487 15.2032 15.2894 15.1781 15.9259 15.0728C16.542 14.9709 16.8815 14.806 17.1309 14.5494C17.3791 14.2942 17.5351 13.9472 17.6199 13.3176C17.7073 12.6688 17.7087 11.8137 17.7087 10.5897V9.41044C17.7087 8.18648 17.7073 7.33131 17.6199 6.68248C17.5351 6.05289 17.379 5.70594 17.1309 5.4507C16.8815 5.19409 16.542 5.02917 15.9259 4.92729C15.2894 4.82202 14.4486 4.79688 13.2429 4.76278C12.1197 4.73101 10.9762 4.70837 10.0003 4.70837Z" fill="#DAFAA1"/>
</svg>
