<svg width="35" height="35" viewBox="0 0 35 35" fill="none" xmlns="http://www.w3.org/2000/svg">
<path fill-rule="evenodd" clip-rule="evenodd" d="M11.6225 15.9974C12.0497 15.5702 12.7422 15.5702 13.1693 15.9974L16.7709 19.599L23.2892 13.0807C23.7163 12.6535 24.4088 12.6535 24.836 13.0807C25.2631 13.5078 25.2631 14.2003 24.836 14.6275L17.5443 21.9192C17.1172 22.3463 16.4247 22.3463 15.9975 21.9192L11.6225 17.5441C11.1954 17.117 11.1954 16.4245 11.6225 15.9974Z" fill="#3D3A34"/>
<path fill-rule="evenodd" clip-rule="evenodd" d="M16.6302 1.98954C17.2032 1.86221 17.7971 1.86221 18.3701 1.98954L29.5441 4.47265C30.8401 4.76066 31.7072 5.99278 31.5178 7.31876L28.7912 26.4047C28.7246 26.8711 28.4834 28.4574 26.8408 29.8956C25.2172 31.3173 22.3941 32.4479 17.5001 32.4479C12.6062 32.4479 9.7831 31.3173 8.15943 29.8956C6.51686 28.4574 6.27568 26.8711 6.20904 26.4047L3.48249 7.31876C3.29306 5.99278 4.16013 4.76066 5.45617 4.47265L16.6302 1.98954ZM17.8956 4.12495C17.6351 4.06707 17.3651 4.06707 17.1047 4.12495L5.93071 6.60806C5.73898 6.65067 5.62189 6.82663 5.648 7.0094L8.37621 26.1069C8.41484 26.3788 8.54997 27.3301 9.60047 28.2499C10.6854 29.1998 12.9149 30.2604 17.5001 30.2604C22.0854 30.2604 24.3149 29.1998 25.3998 28.2499C26.4503 27.3301 26.5854 26.3788 26.6241 26.1069L29.3523 7.0094C29.3784 6.82663 29.2613 6.65067 29.0696 6.60806L17.8956 4.12495Z" fill="#3D3A34"/>
</svg>
