<svg width="35" height="35" viewBox="0 0 35 35" fill="none" xmlns="http://www.w3.org/2000/svg">
<path fill-rule="evenodd" clip-rule="evenodd" d="M11.6668 18.5938C6.63298 18.5938 2.55225 22.6745 2.55225 27.7083V29.1667C2.55225 29.7707 2.06256 30.2604 1.4585 30.2604C0.854435 30.2604 0.364746 29.7707 0.364746 29.1667V27.7083C0.364746 21.4664 5.42486 16.4062 11.6668 16.4062C17.9088 16.4062 22.9689 21.4664 22.9689 27.7083V29.1667C22.9689 29.7707 22.4792 30.2604 21.8752 30.2604C21.2711 30.2604 20.7814 29.7707 20.7814 29.1667V27.7083C20.7814 22.6745 16.7007 18.5938 11.6668 18.5938Z" fill="#3D3A34"/>
<path fill-rule="evenodd" clip-rule="evenodd" d="M26.2502 14.2188C22.8271 14.2188 20.0522 16.9937 20.0522 20.4167H17.8647C17.8647 15.7855 21.619 12.0312 26.2502 12.0312C30.8813 12.0312 34.6356 15.7855 34.6356 20.4167V21.1458C34.6356 21.7499 34.1459 22.2396 33.5418 22.2396C32.9378 22.2396 32.4481 21.7499 32.4481 21.1458V20.4167C32.4481 16.9937 29.6732 14.2188 26.2502 14.2188Z" fill="#3D3A34"/>
<path fill-rule="evenodd" clip-rule="evenodd" d="M11.6668 6.927C9.04923 6.927 6.92725 9.04899 6.92725 11.6666C6.92725 14.2842 9.04923 16.4062 11.6668 16.4062C14.2844 16.4062 16.4064 14.2842 16.4064 11.6666C16.4064 9.04899 14.2844 6.927 11.6668 6.927ZM4.73975 11.6666C4.73975 7.84086 7.84111 4.7395 11.6668 4.7395C15.4926 4.7395 18.5939 7.84086 18.5939 11.6666C18.5939 15.4923 15.4926 18.5937 11.6668 18.5937C7.84111 18.5937 4.73975 15.4923 4.73975 11.6666Z" fill="#3D3A34"/>
<path fill-rule="evenodd" clip-rule="evenodd" d="M26.25 5.46875C24.4378 5.46875 22.9688 6.93782 22.9688 8.75C22.9688 10.5622 24.4378 12.0313 26.25 12.0313C28.0622 12.0313 29.5313 10.5622 29.5313 8.75C29.5313 6.93782 28.0622 5.46875 26.25 5.46875ZM20.7812 8.75C20.7812 5.72969 23.2297 3.28125 26.25 3.28125C29.2703 3.28125 31.7188 5.72969 31.7188 8.75C31.7188 11.7703 29.2703 14.2188 26.25 14.2188C23.2297 14.2188 20.7812 11.7703 20.7812 8.75Z" fill="#3D3A34"/>
</svg>
