<svg width="20" height="20" viewBox="0 0 20 20" fill="none" xmlns="http://www.w3.org/2000/svg">
<path fill-rule="evenodd" clip-rule="evenodd" d="M3.77719 3.125L14.4716 16.875H16.2214L5.52695 3.125H3.77719ZM2.63359 3.69068C2.05884 2.95172 2.58545 1.875 3.52161 1.875H5.58809C5.93525 1.875 6.26297 2.03528 6.47611 2.30932L17.365 16.3093C17.9397 17.0483 17.4131 18.125 16.477 18.125H14.4105C14.0633 18.125 13.7356 17.9647 13.5225 17.6907L2.63359 3.69068Z" fill="#DAFAA1"/>
<path fill-rule="evenodd" clip-rule="evenodd" d="M17.0822 2.03288C16.8242 1.80355 16.4292 1.82679 16.1999 2.08478L2.86652 17.0848C2.6372 17.3428 2.66044 17.7378 2.91843 17.9671C3.17641 18.1965 3.57146 18.1732 3.80078 17.9152L17.1341 2.91523C17.3634 2.65724 17.3402 2.2622 17.0822 2.03288Z" fill="#DAFAA1"/>
</svg>
