<svg width="20" height="20" viewBox="0 0 20 20" fill="none" xmlns="http://www.w3.org/2000/svg">
<path fill-rule="evenodd" clip-rule="evenodd" d="M10.0003 7.29169C8.50455 7.29169 7.29199 8.50425 7.29199 10C7.29199 11.4958 8.50455 12.7084 10.0003 12.7084C11.4961 12.7084 12.7087 11.4958 12.7087 10C12.7087 8.50425 11.4961 7.29169 10.0003 7.29169ZM6.04199 10C6.04199 7.81389 7.8142 6.04169 10.0003 6.04169C12.1865 6.04169 13.9587 7.81389 13.9587 10C13.9587 12.1861 12.1865 13.9584 10.0003 13.9584C7.8142 13.9584 6.04199 12.1861 6.04199 10Z" fill="#DAFAA1"/>
<path fill-rule="evenodd" clip-rule="evenodd" d="M6.66667 3.125C4.71066 3.125 3.125 4.71066 3.125 6.66667V13.3333C3.125 15.2893 4.71066 16.875 6.66667 16.875H13.3333C15.2893 16.875 16.875 15.2893 16.875 13.3333V6.66667C16.875 4.71066 15.2893 3.125 13.3333 3.125H6.66667ZM1.875 6.66667C1.875 4.0203 4.0203 1.875 6.66667 1.875H13.3333C15.9797 1.875 18.125 4.0203 18.125 6.66667V13.3333C18.125 15.9797 15.9797 18.125 13.3333 18.125H6.66667C4.0203 18.125 1.875 15.9797 1.875 13.3333V6.66667Z" fill="#DAFAA1"/>
<path fill-rule="evenodd" clip-rule="evenodd" d="M15.0094 4.95122C15.266 5.18213 15.2868 5.57731 15.0559 5.83388L15.0476 5.84314C14.8167 6.09971 14.4215 6.12051 14.1649 5.88959C13.9083 5.65868 13.8875 5.2635 14.1185 5.00693L14.1268 4.99767C14.3577 4.7411 14.7529 4.72031 15.0094 4.95122Z" fill="#DAFAA1"/>
</svg>
