<svg width="76" height="55" viewBox="0 0 76 55" fill="none" xmlns="http://www.w3.org/2000/svg">
<path d="M32.8832 38.602C32.8832 47.6568 26.6878 54.3287 17.1564 54.3287C7.62508 54.3287 0 46.4654 0 33.598C0 16.2033 12.1525 2.38284 28.8324 0V10.0079C19.5393 11.9142 12.8673 18.1096 12.8673 25.7347C14.5353 24.7815 16.6799 24.0667 19.5393 24.0667C26.9261 24.0667 32.8832 29.3089 32.8832 38.602ZM75.536 38.602C75.536 47.6568 69.1023 54.3287 59.8093 54.3287C50.0396 54.3287 42.4145 46.4654 42.4145 33.598C42.4145 16.2033 54.8053 2.38284 71.4852 0V10.0079C62.1921 11.9142 55.5201 18.1096 55.5201 25.4964C57.1881 24.5433 59.3327 24.0667 61.9538 24.0667C69.3406 24.0667 75.536 29.3089 75.536 38.602Z" fill="#DAFAA1"/>
</svg>
