<svg width="352" height="43" viewBox="0 0 352 43" fill="none" xmlns="http://www.w3.org/2000/svg">
<path d="M56.9164 14.683C56.9164 10.0893 60.6209 6.97745 66.1408 6.97745C71.2531 6.97745 74.5502 9.82998 74.8465 14.4607H71.179C70.9938 11.7934 69.1044 10.2375 66.1037 10.2375C62.7326 10.2375 60.5468 11.9416 60.5468 14.5718C60.5468 16.7205 61.7694 18.0171 64.2885 18.6098L68.6969 19.6471C73.0683 20.6474 75.2911 23.0183 75.2911 26.797C75.2911 31.6129 71.5495 34.6877 65.8444 34.6877C60.3987 34.6877 56.7682 31.8352 56.5459 27.2415H60.2505C60.3246 29.7977 62.4732 31.4277 65.8444 31.4277C69.4008 31.4277 71.6606 29.7606 71.6606 27.0933C71.6606 24.9817 70.5122 23.6481 67.956 23.0553L63.5476 22.0551C59.1762 21.0549 56.9164 18.5357 56.9164 14.683Z" fill="#FCFFF6"/>
<path d="M91.782 16.1278H95.2272V34.2432H92.1154L91.7449 31.5018C90.7077 33.3911 88.2997 34.6877 85.6324 34.6877C81.4092 34.6877 79.0382 31.8352 79.0382 27.3897V16.1278H82.5205V26.2413C82.5205 30.1311 84.1876 31.6129 86.8549 31.6129C90.0408 31.6129 91.782 29.5754 91.782 25.6856V16.1278Z" fill="#FCFFF6"/>
<path d="M98.4361 28.9827H101.77C101.77 30.835 103.178 31.9463 105.475 31.9463C107.92 31.9463 109.328 30.9461 109.328 29.279C109.328 28.0565 108.735 27.3156 106.845 26.834L103.66 26.0931C100.437 25.3151 98.9176 23.7222 98.9176 21.0549C98.9176 17.7207 101.733 15.6091 105.734 15.6091C109.698 15.6091 112.291 17.8319 112.365 21.2771H109.031C108.957 19.4619 107.735 18.3135 105.623 18.3135C103.437 18.3135 102.215 19.2767 102.215 20.9437C102.215 22.1662 103.104 22.9812 104.882 23.4258L108.068 24.2038C111.143 24.9447 112.662 26.3524 112.662 29.0568C112.662 32.502 109.698 34.6877 105.401 34.6877C101.14 34.6877 98.4361 32.4279 98.4361 28.9827Z" fill="#FCFFF6"/>
<path d="M121.636 34.2432H118.153V19.0544H114.597V16.1278H118.153V10.4598H121.636V16.1278H125.192V19.0544H121.636V34.2432Z" fill="#FCFFF6"/>
<path d="M133.398 34.6877C129.508 34.6877 127.211 32.502 127.211 29.2049C127.211 25.8708 129.693 23.7963 133.953 23.4628L139.659 23.0183V22.4997C139.659 19.4619 137.843 18.3876 135.398 18.3876C132.472 18.3876 130.805 19.6842 130.805 21.8699H127.767C127.767 18.0912 130.879 15.6091 135.546 15.6091C140.029 15.6091 143.067 17.9801 143.067 22.8701V34.2432H140.103L139.733 31.3166C138.806 33.3911 136.324 34.6877 133.398 34.6877ZM134.398 31.9834C137.695 31.9834 139.696 29.8347 139.696 26.4265V25.4633L135.065 25.8338C131.99 26.1301 130.73 27.3156 130.73 29.0938C130.73 31.0202 132.138 31.9834 134.398 31.9834Z" fill="#FCFFF6"/>
<path d="M149.593 11.8305C148.334 11.8305 147.297 10.7932 147.297 9.53361C147.297 8.23701 148.334 7.23677 149.593 7.23677C150.853 7.23677 151.89 8.23701 151.89 9.53361C151.89 10.7932 150.853 11.8305 149.593 11.8305ZM147.889 34.2432V16.1278H151.372V34.2432H147.889Z" fill="#FCFFF6"/>
<path d="M159.91 34.2432H156.427V16.1278H159.576L159.947 18.9062C161.095 16.8316 163.392 15.6091 165.948 15.6091C170.727 15.6091 172.913 18.5357 172.913 23.1665V34.2432H169.43V23.9444C169.43 20.2769 167.726 18.7951 165.059 18.7951C161.799 18.7951 159.91 21.129 159.91 24.6483V34.2432Z" fill="#FCFFF6"/>
<path d="M183.033 34.6877C179.144 34.6877 176.847 32.502 176.847 29.2049C176.847 25.8708 179.329 23.7963 183.589 23.4628L189.294 23.0183V22.4997C189.294 19.4619 187.479 18.3876 185.034 18.3876C182.107 18.3876 180.44 19.6842 180.44 21.8699H177.402C177.402 18.0912 180.514 15.6091 185.182 15.6091C189.665 15.6091 192.702 17.9801 192.702 22.8701V34.2432H189.739L189.368 31.3166C188.442 33.3911 185.96 34.6877 183.033 34.6877ZM184.034 31.9834C187.331 31.9834 189.331 29.8347 189.331 26.4265V25.4633L184.7 25.8338C181.626 26.1301 180.366 27.3156 180.366 29.0938C180.366 31.0202 181.774 31.9834 184.034 31.9834Z" fill="#FCFFF6"/>
<path d="M200.674 34.2432H197.525V6.97745H201.007V19.2396C202.193 16.8687 204.638 15.6091 207.601 15.6091C212.788 15.6091 215.9 19.6842 215.9 25.2781C215.9 30.7609 212.64 34.6877 207.379 34.6877C204.527 34.6877 202.119 33.4282 200.933 30.9461L200.674 34.2432ZM201.044 25.1299C201.044 28.9086 203.193 31.5388 206.749 31.5388C210.306 31.5388 212.417 28.8715 212.417 25.1299C212.417 21.4253 210.306 18.758 206.749 18.758C203.193 18.758 201.044 21.4253 201.044 25.1299Z" fill="#FCFFF6"/>
<path d="M221.442 11.8305C220.183 11.8305 219.145 10.7932 219.145 9.53361C219.145 8.23701 220.183 7.23677 221.442 7.23677C222.702 7.23677 223.739 8.23701 223.739 9.53361C223.739 10.7932 222.702 11.8305 221.442 11.8305ZM219.738 34.2432V16.1278H223.22V34.2432H219.738Z" fill="#FCFFF6"/>
<path d="M231.832 34.2432H228.35V6.97745H231.832V34.2432Z" fill="#FCFFF6"/>
<path d="M238.663 11.8305C237.403 11.8305 236.366 10.7932 236.366 9.53361C236.366 8.23701 237.403 7.23677 238.663 7.23677C239.922 7.23677 240.959 8.23701 240.959 9.53361C240.959 10.7932 239.922 11.8305 238.663 11.8305ZM236.959 34.2432V16.1278H240.441V34.2432H236.959Z" fill="#FCFFF6"/>
<path d="M250.609 34.2432H247.126V19.0544H243.57V16.1278H247.126V10.4598H250.609V16.1278H254.165V19.0544H250.609V34.2432Z" fill="#FCFFF6"/>
<path d="M255.549 42.3562V39.5037H257.883C259.55 39.5037 260.884 39.2444 261.736 36.9475L262.366 35.2064L255.068 16.1278H258.735L263.996 30.7238L269.367 16.1278H272.961L264.403 38.3182C263.181 41.4301 261.365 42.7267 258.587 42.7267C257.438 42.7267 256.475 42.5785 255.549 42.3562Z" fill="#FCFFF6"/>
<path d="M290.094 34.2432H286.463V7.45904H290.094V18.9803H303.356V7.45904H306.987V34.2432H303.356V22.3515H290.094V34.2432Z" fill="#FCFFF6"/>
<path d="M325.127 16.1278H328.573V34.2432H325.461L325.09 31.5018C324.053 33.3911 321.645 34.6877 318.978 34.6877C314.754 34.6877 312.384 31.8352 312.384 27.3897V16.1278H315.866V26.2413C315.866 30.1311 317.533 31.6129 320.2 31.6129C323.386 31.6129 325.127 29.5754 325.127 25.6856V16.1278Z" fill="#FCFFF6"/>
<path d="M336.774 34.2432H333.625V6.97745H337.107V19.2396C338.293 16.8687 340.738 15.6091 343.701 15.6091C348.888 15.6091 352 19.6842 352 25.2781C352 30.7609 348.74 34.6877 343.479 34.6877C340.627 34.6877 338.219 33.4282 337.033 30.9461L336.774 34.2432ZM337.144 25.1299C337.144 28.9086 339.293 31.5388 342.849 31.5388C346.406 31.5388 348.517 28.8715 348.517 25.1299C348.517 21.4253 346.406 18.758 342.849 18.758C339.293 18.758 337.144 21.4253 337.144 25.1299Z" fill="#FCFFF6"/>
<g clip-path="url(#clip0_470_3954)">
<path d="M20.094 11.7396C19.6766 8.16251 19.2358 4.38562 19.2358 0H23.1738C23.1738 4.33636 22.7352 8.10845 22.3183 11.6896C21.9787 14.608 21.6538 17.3996 21.5935 20.2665C23.5709 18.204 25.3005 16.0171 27.1125 13.7262C29.3465 10.9017 31.7058 7.91942 34.8066 4.81841L37.5913 7.60303C34.5249 10.6693 31.5472 13.0262 28.7202 15.2639L28.7176 15.2659C26.4149 17.0888 24.2122 18.8324 22.1431 20.8161C24.9994 20.7558 27.7689 20.4326 30.6698 20.0941C34.247 19.6766 38.0241 19.2358 42.4096 19.2358V23.1738C38.0735 23.1738 34.3013 22.735 30.7204 22.3183L30.7177 22.3181C27.7999 21.9786 25.0092 21.6539 22.1431 21.5935C24.2042 23.5694 26.39 25.2983 28.6794 27.109L28.683 27.1121C31.5076 29.3463 34.4901 31.7053 37.5913 34.8066L34.8066 37.5913C31.7403 34.5251 29.3835 31.5475 27.1462 28.7208L27.1409 28.7134L27.1364 28.7076C25.3159 26.4086 23.5744 24.2093 21.5935 22.1431C21.6538 25.01 21.9787 27.8016 22.3183 30.7201C22.7352 34.3012 23.1738 38.0733 23.1738 42.4096H19.2358C19.2358 38.0241 19.6766 34.2472 20.094 30.67L20.0949 30.6642C20.433 27.7653 20.7558 24.9975 20.8161 22.1431C18.8353 24.2093 17.0937 26.4086 15.2732 28.7076L15.2687 28.7134L15.2634 28.7208C13.0261 31.5475 10.6693 34.5251 7.60303 37.5913L4.81841 34.8066C7.91957 31.7053 10.902 29.3463 13.7266 27.1121L13.7302 27.109C16.0196 25.2983 18.2054 23.5694 20.2665 21.5935C17.3996 21.654 14.6079 21.9788 11.6893 22.3183C8.1083 22.735 4.33622 23.1738 0 23.1738V19.2358C4.38562 19.2358 8.16273 19.6766 11.7398 20.0941C14.6408 20.4326 17.4102 20.7558 20.2665 20.8161C18.1966 18.8317 15.993 17.0875 13.6894 15.2639C10.8625 13.0262 7.88465 10.6693 4.81841 7.60303L7.60303 4.81841C10.7039 7.91942 13.0631 10.9017 15.2972 13.7262C17.1091 16.017 18.8388 18.2039 20.8161 20.2663C20.7558 17.412 20.433 14.6444 20.0949 11.7455L20.094 11.7396Z" fill="#FCFFF6"/>
</g>
<defs>
<clipPath id="clip0_470_3954">
<rect width="42.4096" height="42.4096" fill="white"/>
</clipPath>
</defs>
</svg>
